<?xml version="1.0" standalone="no"?>
<!DOCTYPE svg PUBLIC "-//W3C//DTD SVG 20010904//EN"
 "http://www.w3.org/TR/2001/REC-SVG-20010904/DTD/svg10.dtd">
<svg version="1.0" xmlns="http://www.w3.org/2000/svg"
 width="2430.000000pt" height="1536.000000pt" viewBox="0 0 2430.000000 1536.000000"
 preserveAspectRatio="xMidYMid meet">

<g transform="translate(0.000000,1536.000000) scale(0.100000,-0.100000)"
fill="#000000" stroke="none">
<path d="M12362 12947 c-104 -38 -164 -153 -138 -266 8 -36 58 -103 72 -97 7
3 15 0 18 -7 3 -8 7 -9 13 -1 6 7 15 7 30 -1 13 -7 20 -15 15 -20 -4 -4 1 -5
11 -2 19 7 24 -9 5 -16 -8 -4 -9 -6 -2 -6 6 -1 17 5 23 12 8 11 0 19 -40 38
-40 18 -55 32 -71 66 -11 23 -17 47 -13 53 4 6 1 18 -6 26 -8 9 -9 18 -3 22 5
4 10 20 12 36 5 41 43 94 86 115 19 10 33 14 30 7 -3 -6 0 -4 8 4 13 16 49 21
58 9 3 -4 16 -9 30 -10 14 -2 31 -10 38 -17 8 -7 18 -10 23 -6 5 3 8 1 7 -4
-2 -6 2 -11 7 -12 19 -3 28 -34 31 -111 3 -62 1 -78 -11 -83 -11 -4 -14 -13
-9 -32 6 -22 4 -26 -9 -21 -12 4 -14 2 -10 -10 4 -9 2 -14 -3 -11 -5 3 -15 0
-21 -8 -8 -8 -9 -15 -3 -19 6 -3 10 -1 10 5 0 6 10 8 23 5 15 -4 28 -1 36 9 8
9 10 16 6 16 -5 0 0 9 11 21 30 33 41 87 30 144 -26 137 -165 218 -294 172z"/>
<path d="M11075 10419 c-4 -6 -5 -12 -2 -15 2 -3 7 2 10 11 7 17 1 20 -8 4z"/>
<path d="M11026 10333 c-6 -14 -5 -15 5 -6 7 7 10 15 7 18 -3 3 -9 -2 -12 -12z"/>
<path d="M11000 10295 c-7 -9 -10 -18 -7 -21 3 -3 10 4 17 15 13 25 8 27 -10
6z"/>
<path d="M10970 10249 c0 -5 5 -7 10 -4 6 3 10 8 10 11 0 2 -4 4 -10 4 -5 0
-10 -5 -10 -11z"/>
<path d="M10926 10173 c-6 -14 -5 -15 5 -6 7 7 10 15 7 18 -3 3 -9 -2 -12 -12z"/>
<path d="M11848 10143 c7 -3 16 -2 19 1 4 3 -2 6 -13 5 -11 0 -14 -3 -6 -6z"/>
<path d="M11805 10130 c-3 -6 1 -7 9 -4 18 7 21 14 7 14 -6 0 -13 -4 -16 -10z"/>
<path d="M10865 10064 c-9 -15 -12 -23 -6 -20 11 7 35 46 28 46 -3 0 -12 -12
-22 -26z"/>
<path d="M10820 10000 c-7 -16 -16 -30 -21 -30 -5 0 -9 -4 -9 -9 0 -5 -12 -30
-27 -56 -22 -40 -28 -45 -33 -29 -10 27 -1 54 16 47 16 -6 18 5 4 27 -10 17
-9 18 -43 -41 -24 -42 -30 -47 -71 -51 -50 -6 -113 -48 -127 -86 -12 -32 -1
-92 17 -92 8 0 13 3 13 8 -1 4 0 9 1 12 1 3 4 18 6 34 8 46 30 70 66 72 56 1
85 -20 90 -66 2 -29 0 -40 -10 -40 -7 0 -10 -5 -7 -10 4 -6 3 -10 -2 -9 -21 4
-31 -3 -37 -23 -5 -20 -8 -21 -17 -8 -7 10 -12 11 -15 3 -3 -7 -14 -2 -31 13
-14 13 -29 21 -32 18 -3 -4 0 -9 7 -11 6 -3 12 -9 12 -14 0 -6 -4 -8 -9 -4 -5
3 -29 -30 -52 -72 -24 -43 -91 -157 -149 -253 -59 -96 -137 -227 -175 -290
-37 -63 -85 -143 -106 -178 -22 -35 -39 -65 -39 -67 0 -2 -17 -30 -39 -62 -21
-32 -48 -76 -60 -98 -11 -22 -33 -61 -48 -86 -45 -75 -219 -366 -501 -839
-146 -245 -297 -499 -337 -565 -39 -66 -90 -154 -113 -195 -22 -41 -56 -97
-76 -124 l-34 -49 -74 -1 c-84 -1 -124 -18 -183 -74 -83 -81 -104 -199 -52
-304 33 -67 73 -100 158 -128 74 -25 115 -22 195 16 63 30 96 66 120 131 9 26
20 51 23 54 8 9 3077 21 3175 13 l78 -7 26 -43 c70 -115 229 -114 286 2 l21
42 90 6 c50 4 784 6 1633 4 l1543 -3 18 -52 c25 -73 62 -117 127 -149 180 -88
378 35 375 233 -2 165 -117 272 -280 261 l-70 -5 -54 91 c-30 50 -89 150 -130
221 -94 164 -151 261 -264 450 -134 223 -419 702 -503 845 -143 244 -302 505
-313 515 -6 6 -4 -1 4 -15 58 -96 168 -288 204 -354 22 -39 24 -51 13 -58 -10
-8 -9 -9 4 -4 13 4 25 -7 44 -42 15 -26 33 -54 39 -62 51 -63 82 -165 40 -130
-8 7 -15 21 -15 31 0 11 -5 19 -11 19 -6 0 -8 7 -5 15 3 9 -1 18 -10 22 -8 3
-13 12 -10 19 3 8 0 14 -7 14 -10 0 -40 35 -42 50 0 3 -9 18 -20 34 -11 17
-19 38 -17 47 2 10 -2 21 -9 25 -8 5 -9 3 -4 -7 7 -12 6 -12 -9 0 -10 8 -15
23 -13 33 3 11 0 18 -9 18 -13 0 -18 12 -15 32 0 5 -2 7 -7 5 -4 -1 -8 2 -9 7
-1 5 -5 12 -10 15 -5 3 -21 26 -35 51 -14 25 -38 59 -53 75 l-27 30 25 -45
c29 -52 129 -223 220 -378 252 -427 412 -697 501 -845 56 -95 151 -255 211
-357 59 -102 132 -223 161 -270 60 -98 77 -132 52 -113 -8 7 -19 9 -23 5 -5
-4 -5 -2 -2 4 6 10 -68 98 -211 249 -155 163 -275 285 -278 282 -2 -2 21 -30
51 -62 30 -32 55 -59 55 -60 0 -2 26 -30 58 -63 31 -33 87 -93 123 -134 37
-40 94 -102 127 -138 33 -36 59 -67 57 -68 -5 -5 -131 123 -175 177 -19 24
-48 55 -64 69 -16 15 -41 41 -55 57 -14 17 -63 67 -108 112 -46 46 -83 88 -83
94 0 5 -4 7 -10 4 -5 -3 -10 -2 -10 3 0 6 -8 13 -17 16 -10 4 18 -30 63 -76
44 -46 155 -164 246 -263 91 -99 182 -196 202 -214 59 -57 39 -72 -30 -22 -21
15 -244 151 -494 301 -250 150 -473 285 -495 300 -35 24 -304 187 -330 200
-10 5 -141 83 -210 125 -70 43 -74 47 -76 100 -3 63 -14 93 -46 127 -31 32
-69 43 -91 26 -12 -10 -16 -10 -19 0 -3 6 -9 12 -15 12 -6 0 -8 -6 -5 -14 3
-8 -2 -16 -14 -19 -16 -4 -17 -2 -9 14 8 15 7 17 -5 13 -8 -4 -15 -12 -15 -20
0 -8 -4 -14 -10 -14 -5 0 -10 7 -10 15 0 8 -5 15 -11 15 -7 0 -9 -9 -6 -21 3
-13 1 -19 -6 -16 -7 3 -11 9 -10 15 3 14 -41 6 -45 -8 -5 -13 -39 -13 -47 0
-3 6 -15 10 -26 10 -10 0 -19 4 -19 10 0 5 -12 17 -27 25 -16 9 -19 13 -8 9
11 -3 25 -7 32 -7 7 0 12 -3 11 -6 -2 -18 3 -24 10 -13 7 9 14 8 32 -8 23 -20
38 -21 25 -1 -6 10 -282 200 -358 246 -18 10 -102 65 -187 120 -140 92 -456
294 -520 333 -16 10 -13 4 10 -16 19 -17 41 -31 48 -32 6 0 12 -4 12 -10 0 -5
7 -10 15 -10 8 0 15 -3 15 -8 0 -4 13 -13 30 -20 16 -8 28 -19 27 -25 -1 -7 5
-11 14 -9 8 1 25 -7 37 -18 12 -11 26 -20 32 -20 6 0 8 -5 5 -10 -4 -6 -3 -10
2 -9 20 4 33 -2 33 -15 0 -9 7 -12 20 -9 11 3 20 0 20 -6 0 -6 5 -11 11 -11
12 0 103 -60 107 -72 2 -4 8 -8 13 -8 5 0 47 -25 92 -55 76 -51 79 -55 47 -51
-19 2 -34 9 -32 15 1 6 -8 11 -19 11 -12 0 -31 10 -43 23 -12 12 -27 23 -33
24 -11 2 -78 44 -100 63 -7 6 -24 15 -38 22 -14 6 -25 15 -25 20 0 4 -6 8 -14
8 -8 0 -28 13 -45 29 -16 15 -32 26 -35 24 -2 -3 -28 13 -58 35 -29 21 -67 46
-85 55 -17 9 -33 20 -35 24 -1 5 -25 19 -53 33 -27 13 -52 27 -55 30 -3 3 -25
16 -50 29 -25 14 -52 32 -60 41 -8 8 -40 31 -70 50 -30 19 -57 38 -58 42 -2 5
-7 6 -12 3 -5 -3 -14 1 -22 8 -24 24 -56 38 -63 27 -3 -6 -18 -7 -32 -4 -17 5
-30 2 -37 -8 -6 -8 -31 -25 -56 -39 -25 -13 -47 -27 -50 -30 -3 -3 -40 -27
-83 -55 -43 -27 -96 -60 -117 -74 -87 -56 -132 -81 -150 -85 -38 -7 -19 10 63
60 45 27 107 65 137 85 30 20 75 47 100 59 25 13 61 35 80 50 19 15 47 33 63
40 15 8 27 19 27 24 0 5 6 4 14 -2 9 -7 17 -8 20 -3 8 13 -22 24 -37 15 -227
-134 -1045 -652 -1349 -854 -64 -42 -118 -75 -121 -73 -5 6 257 394 276 409 7
6 21 28 31 49 10 21 55 96 100 165 94 144 210 324 316 491 40 63 80 126 90
140 29 42 51 90 42 90 -5 0 -15 -12 -23 -27 -8 -15 -25 -38 -39 -50 -24 -21
-25 -21 -30 -2 -4 14 -24 -10 -80 -97 -41 -63 -111 -170 -155 -237 -44 -67
-118 -180 -164 -252 -46 -71 -92 -137 -103 -146 -10 -9 -18 -23 -18 -32 0 -16
-229 -356 -255 -377 -12 -10 -18 -10 -32 1 -10 7 -15 10 -11 5 4 -4 2 -13 -3
-20 -6 -6 -19 -26 -30 -44 -11 -19 -25 -32 -32 -29 -17 5 -22 52 -43 370 -14
218 -15 283 -6 298 7 11 8 19 2 19 -15 0 -28 67 -35 185 -3 61 -15 225 -26
365 -11 140 -21 289 -22 330 -2 69 0 75 19 78 14 2 23 14 30 39 5 20 15 39 23
41 9 3 11 0 6 -8 -6 -9 -4 -11 5 -5 10 6 10 10 -2 19 -14 10 -13 16 8 52 29
48 38 53 342 159 34 12 68 27 74 33 9 9 -216 -64 -296 -97 -39 -16 -106 -22
-106 -9 0 5 -4 7 -9 4 -5 -3 -13 0 -19 7 -10 12 8 64 34 98 25 33 64 109 56
109 -5 0 -15 -13 -22 -30z m-206 -480 c3 -30 8 -98 11 -150 3 -52 7 -126 10
-165 3 -38 12 -169 20 -290 8 -121 17 -243 20 -271 l5 -51 -61 -64 c-122 -127
-527 -548 -684 -709 -374 -385 -450 -464 -616 -640 -96 -102 -223 -238 -283
-303 -60 -64 -111 -115 -113 -113 -4 4 246 431 407 696 15 25 87 146 160 270
73 124 181 306 240 405 126 214 305 516 333 565 11 19 50 85 87 145 71 116
367 616 414 698 16 27 32 45 36 40 5 -4 11 -33 14 -63z m-107 -22 c-2 -7 -9
-12 -15 -11 -6 2 -9 -4 -6 -12 4 -8 1 -15 -7 -15 -7 0 -10 -3 -7 -6 3 -3 -7
-19 -23 -36 -15 -17 -26 -36 -22 -41 6 -10 -34 -92 -54 -109 -11 -9 -12 -7 -7
7 5 12 4 16 -4 11 -6 -4 7 22 28 56 22 35 46 74 52 88 20 41 49 80 60 80 5 0
8 -6 5 -12z m157 -83 c-4 -8 -11 -12 -16 -9 -6 4 -5 10 3 15 19 12 19 11 13
-6z m-310 -163 c3 -5 -1 -9 -9 -9 -8 0 -12 4 -9 9 3 4 7 8 9 8 2 0 6 -4 9 -8z
m1323 -149 c-13 -13 -14 -12 -12 9 4 42 5 43 16 24 9 -14 8 -22 -4 -33z m-27
-17 c0 -3 -4 -8 -10 -11 -5 -3 -10 -1 -10 4 0 6 5 11 10 11 6 0 10 -2 10 -4z
m-14 -48 c-9 -13 -24 -38 -33 -55 -9 -18 -20 -33 -25 -33 -4 0 -8 -7 -8 -15 0
-9 -5 -21 -10 -28 -6 -7 -25 -34 -41 -61 -28 -45 -32 -48 -42 -31 -7 14 -7 20
1 23 7 2 12 8 12 13 0 12 52 93 63 97 4 2 5 8 1 13 -3 5 0 9 5 9 6 0 11 5 11
11 0 18 41 70 50 64 5 -3 11 -1 15 5 3 5 9 10 12 10 3 0 -2 -10 -11 -22z m814
-279 c0 -5 -4 -9 -10 -9 -5 0 -10 7 -10 16 0 8 5 12 10 9 6 -3 10 -10 10 -16z
m-38 -446 c-2 -252 -5 -459 -7 -461 -1 -1 -166 -5 -366 -7 -200 -3 -393 -8
-428 -10 -52 -5 -67 -3 -84 12 -11 10 -17 13 -13 6 9 -16 -27 -21 -204 -27
-255 -10 -345 -10 -349 0 -5 10 304 225 359 250 19 9 47 26 61 39 15 12 121
82 235 155 115 73 252 161 304 195 52 33 122 78 155 99 33 20 119 75 190 121
72 47 135 85 140 85 7 0 9 -157 7 -457z m215 371 c76 -48 190 -121 253 -162
63 -42 203 -131 310 -200 107 -68 234 -153 283 -188 48 -35 90 -64 93 -64 11
0 363 -235 364 -242 0 -7 -162 -13 -220 -8 -14 1 -22 -2 -17 -6 7 -7 58 -12
145 -15 17 -1 34 -4 36 -8 5 -7 -50 -12 -124 -11 -48 1 -50 -8 -4 -16 16 -2
35 -7 42 -9 6 -2 12 1 12 7 0 7 4 7 13 0 6 -5 32 -10 56 -9 26 0 46 -4 49 -11
2 -8 -3 -10 -14 -5 -12 5 -15 3 -9 -6 6 -10 3 -11 -15 -1 -12 6 -24 9 -28 6
-3 -3 0 -6 7 -6 7 0 9 -4 6 -10 -3 -5 0 -10 7 -11 7 0 28 -1 45 -2 18 -1 34
-6 35 -11 4 -11 -98 -93 -302 -244 l-153 -114 -166 51 c-91 28 -173 51 -182
51 -8 0 -19 4 -25 9 -5 5 -112 37 -238 71 -186 51 -230 60 -237 49 -8 -12 -11
-11 -20 1 -8 11 -12 12 -16 2 -7 -17 -23 -5 -16 13 4 11 1 13 -12 9 -13 -5
-16 -3 -13 7 3 8 12 12 19 9 42 -15 585 30 624 52 11 6 20 7 22 1 4 -11 62 -5
78 8 6 4 34 7 63 5 29 -2 52 0 52 4 0 3 14 4 31 2 21 -3 30 -1 25 6 -6 10
-167 8 -216 -4 -24 -5 -25 -5 -5 10 20 16 19 16 -5 12 -14 -3 -68 -8 -120 -11
-52 -3 -129 -10 -170 -15 -232 -27 -402 -42 -433 -36 -51 10 -69 35 -65 92 l3
49 345 -4 c189 -2 369 -5 400 -7 30 -1 124 -4 209 -4 119 -2 156 1 162 12 6 9
2 14 -11 16 -11 2 -20 8 -20 13 0 6 5 7 10 4 6 -3 10 -1 10 4 0 6 -15 11 -32
11 -230 3 -725 13 -878 18 l-195 7 -3 458 c-1 291 1 457 8 457 5 0 71 -39 147
-86z m-1253 -39 c3 -8 1 -15 -4 -15 -6 0 -10 7 -10 15 0 8 2 15 4 15 2 0 6 -7
10 -15z m-24 -25 c0 -5 -5 -10 -11 -10 -5 0 -7 5 -4 10 3 6 8 10 11 10 2 0 4
-4 4 -10z m-40 -79 c0 -5 -8 -19 -18 -32 -23 -28 -37 -11 -16 19 15 22 34 29
34 13z m-680 -41 c0 -5 -5 -10 -11 -10 -5 0 -7 5 -4 10 3 6 8 10 11 10 2 0 4
-4 4 -10z m57 -31 c15 -210 35 -452 39 -486 5 -39 3 -42 -37 -70 -57 -37 -78
-77 -86 -156 l-6 -66 -196 -117 c-108 -64 -252 -152 -321 -194 -69 -43 -240
-146 -380 -230 -337 -202 -612 -373 -679 -421 -105 -74 -79 -33 95 151 70 74
157 167 193 205 121 129 235 249 371 390 74 77 181 189 237 248 112 118 205
215 479 502 100 105 201 212 224 238 24 26 48 46 54 44 6 -2 12 -19 13 -38z
m1203 16 c0 -8 -10 -19 -21 -26 -17 -9 -20 -8 -16 3 2 7 10 12 16 11 6 -2 11
4 11 12 0 8 2 15 5 15 3 0 5 -7 5 -15z m-1296 -20 c-7 -16 -24 -21 -24 -6 0 8
7 13 27 20 1 1 0 -6 -3 -14z m1241 -14 c3 -5 1 -12 -5 -16 -5 -3 -10 1 -10 9
0 18 6 21 15 7z m-1361 -116 c-94 -102 -109 -116 -102 -95 5 15 182 200 191
200 5 0 -35 -47 -89 -105z m1336 95 c0 -5 -5 -10 -11 -10 -5 0 -7 5 -4 10 3 6
8 10 11 10 2 0 4 -4 4 -10z m-60 -45 c-7 -9 -15 -13 -17 -11 -7 7 7 26 19 26
6 0 6 -6 -2 -15z m-36 -26 c-3 -5 -10 -7 -15 -4 -5 4 -9 2 -9 -4 0 -5 -9 -9
-19 -8 -11 0 -17 5 -15 9 3 5 9 6 14 3 4 -3 13 2 20 10 13 16 35 10 24 -6z
m-128 -84 c-11 -8 -24 -15 -30 -15 -5 0 -1 7 10 15 10 8 24 14 29 14 6 0 1 -6
-9 -14z m-46 -25 c0 -5 -5 -10 -11 -10 -5 0 -7 5 -4 10 3 6 8 10 11 10 2 0 4
-4 4 -10z m-39 -23 c-10 -9 -11 -8 -5 6 3 10 9 15 12 12 3 -3 0 -11 -7 -18z
m-1161 -29 c-13 -13 -19 -16 -15 -8 14 25 28 41 32 36 3 -3 -5 -15 -17 -28z
m4844 -1 c157 -268 168 -289 155 -301 -9 -8 -10 -8 -5 1 3 6 -1 18 -9 26 -8 9
-15 20 -15 26 0 6 -6 8 -14 5 -9 -3 -17 3 -22 18 -4 13 -6 25 -5 26 1 2 -5 9
-13 15 -28 21 -114 178 -109 198 7 27 15 24 37 -14z m-1359 -236 c3 -6 -3 -9
-14 -8 -11 0 -17 5 -15 9 7 11 22 10 29 -1z m1560 -119 c-6 -6 -34 28 -35 42
0 5 9 -1 20 -14 11 -13 18 -26 15 -28z m-1234 10 c29 -12 61 -50 53 -64 -3 -4
1 -8 8 -8 10 0 10 -2 -1 -9 -7 -5 -11 -13 -7 -19 12 -20 -24 -70 -65 -86 -42
-17 -49 -16 -88 18 -13 12 -20 14 -16 6 8 -13 6 -13 -8 -1 -9 7 -15 17 -12 21
3 5 1 11 -5 15 -5 3 -7 25 -4 48 3 23 6 48 6 55 1 6 3 10 6 8 2 -2 12 4 22 14
20 20 66 21 111 2z m-3325 -37 c34 -33 4 -105 -48 -118 -58 -15 -96 76 -52
124 14 16 26 19 53 14 18 -4 40 -13 47 -20z m1969 -5 c3 -6 -1 -7 -9 -4 -18 7
-21 14 -7 14 6 0 13 -4 16 -10z m615 -5 c-10 -12 -10 -15 0 -15 8 0 11 -3 7
-6 -3 -3 -10 -3 -16 0 -12 8 -3 36 11 36 6 0 5 -6 -2 -15z m120 5 c0 -5 -9
-10 -20 -10 -11 0 -20 5 -20 10 0 6 9 10 20 10 11 0 20 -4 20 -10z m-1115 -47
c5 -13 13 -23 17 -23 31 0 -19 -75 -60 -91 -24 -9 -633 42 -727 61 -56 12 -88
43 -57 55 9 3 152 9 317 12 165 3 301 6 302 7 1 1 46 2 100 2 92 -1 99 -2 108
-23z m1148 20 c-7 -2 -19 -2 -25 0 -7 3 -2 5 12 5 14 0 19 -2 13 -5z m347 3
c0 -3 -4 -8 -10 -11 -5 -3 -10 -1 -10 4 0 6 5 11 10 11 6 0 10 -2 10 -4z
m-2360 -26 c11 -6 25 -20 31 -31 10 -20 9 -21 -58 -14 -37 4 -75 9 -83 10 -8
2 -55 6 -105 9 -168 12 -208 18 -194 27 20 12 386 11 409 -1z m3903 -22 c10
-16 14 -28 9 -28 -8 0 -32 43 -32 57 0 7 1 6 23 -29z m-4206 -24 c-3 -3 -12
-4 -19 -1 -8 3 -5 6 6 6 11 1 17 -2 13 -5z m40 0 c-3 -3 -12 -4 -19 -1 -8 3
-5 6 6 6 11 1 17 -2 13 -5z m92 -3 c9 -6 0 -8 -27 -7 -23 1 -45 5 -48 9 -11
10 59 8 75 -2z m46 -9 c-3 -3 -11 0 -18 7 -9 10 -8 11 6 5 10 -3 15 -9 12 -12z
m-170 -12 c66 -6 188 -17 270 -25 387 -39 547 -55 633 -61 51 -4 90 -10 85
-15 -4 -4 -42 -16 -83 -27 -82 -22 -330 -95 -590 -173 -90 -28 -171 -48 -180
-46 -13 3 -335 246 -424 320 -18 15 -26 28 -21 36 8 13 55 12 310 -9z m360 0
c3 -6 -1 -7 -9 -4 -18 7 -21 14 -7 14 6 0 13 -4 16 -10z m3895 -46 c0 -1 -8
-2 -18 -1 -10 0 -18 10 -18 24 l-2 24 19 -22 c10 -12 19 -23 19 -25z m-4834
-29 c46 -32 122 -34 178 -6 l37 20 202 -152 c111 -84 201 -156 202 -162 0 -5
-56 -25 -125 -46 -215 -62 -537 -159 -750 -224 -196 -60 -505 -153 -580 -173
-19 -5 -152 -44 -295 -87 -143 -42 -314 -92 -380 -111 -66 -19 -126 -37 -132
-39 -28 -10 -10 12 35 41 47 31 913 563 1052 646 189 114 443 269 477 292 21
14 39 26 40 26 1 0 19 -11 39 -25z m3613 -4 c57 -30 746 -446 996 -602 66 -42
201 -124 300 -184 259 -155 306 -186 300 -195 -3 -4 -26 -1 -52 7 -55 18 -384
115 -808 240 -159 47 -373 111 -475 143 -102 32 -250 77 -330 100 -80 23 -217
64 -305 92 -88 28 -195 60 -237 72 -43 11 -79 26 -80 31 -1 6 87 77 195 159
l197 148 40 -16 c54 -21 117 -20 160 3 46 24 54 25 99 2z m1241 -7 c0 -9 -5
-12 -12 -8 -7 4 -8 3 -4 -4 4 -6 13 -9 21 -5 8 3 15 0 15 -7 0 -7 8 -24 18
-38 27 -38 32 -59 17 -59 -7 0 -11 7 -8 14 4 9 -3 16 -16 20 -16 4 -20 10 -15
25 4 13 2 18 -4 14 -15 -9 -44 37 -36 58 7 19 24 12 24 -10z m-1143 -8 c-1 -6
8 -10 20 -10 12 1 21 -4 20 -10 -1 -6 6 -10 16 -8 9 2 20 -4 23 -11 3 -9 13
-13 25 -10 10 3 19 1 19 -5 0 -5 13 -15 30 -22 33 -14 66 -46 35 -34 -14 6
-16 4 -10 -6 5 -9 4 -11 -4 -6 -6 4 -8 12 -5 18 5 7 2 8 -5 4 -7 -5 -20 -2
-29 6 -9 8 -38 25 -64 39 -27 13 -48 28 -48 32 0 5 -4 6 -9 3 -4 -3 -16 3 -25
13 -13 14 -14 18 -2 18 8 0 14 -5 13 -11z m-1977 -470 c0 -241 -3 -443 -7
-448 -5 -10 -40 -6 -75 7 -22 9 -23 -8 -3 -29 31 -31 -3 -23 -45 10 -24 19
-219 166 -432 326 -213 160 -388 294 -388 297 0 4 64 26 143 49 78 23 212 63
297 88 229 69 494 143 503 141 5 -1 8 -200 7 -441z m290 386 c184 -53 324 -91
365 -98 17 -3 37 -9 45 -14 8 -4 80 -26 160 -50 80 -23 152 -44 160 -47 12 -4
11 -7 -5 -20 -11 -8 -206 -154 -434 -324 -227 -170 -418 -312 -423 -315 -5 -3
-16 0 -24 7 -12 10 -12 14 -2 21 8 6 0 7 -23 4 -36 -6 -36 -6 -43 31 -3 21 -6
221 -6 445 0 316 3 407 13 411 16 6 35 2 217 -51z m1100 -7 c-7 -8 -18 -15
-24 -15 -6 0 -2 7 8 15 25 19 32 19 16 0z m-47 -19 c3 -8 -4 -21 -18 -30 -21
-14 -23 -14 -18 4 3 11 9 17 14 14 5 -3 9 2 9 10 0 20 6 20 13 2z m1860 -23
c-20 -7 -15 -23 5 -17 14 5 15 4 2 -5 -8 -6 -19 -6 -24 -1 -10 10 1 30 17 29
9 0 9 -2 0 -6z m87 -144 c0 -5 -4 -11 -10 -14 -6 -4 -7 1 -3 11 5 14 3 16 -11
11 -14 -6 -16 -3 -11 14 4 12 3 19 -2 16 -5 -3 -15 -1 -23 4 -13 7 -13 10 -1
18 9 6 10 11 2 15 -6 4 -11 15 -11 24 0 9 16 -8 35 -38 19 -30 35 -57 35 -61z
m-2520 91 c0 -5 -2 -10 -4 -10 -3 0 -8 5 -11 10 -3 6 -1 10 4 10 6 0 11 -4 11
-10z m1748 -132 c-2 -6 -10 -13 -16 -14 -7 -1 -8 0 -2 3 5 2 8 9 4 14 -3 5 0
9 6 9 7 0 10 -5 8 -12z m-1138 -84 c140 -42 318 -95 395 -119 77 -24 190 -58
250 -75 129 -38 473 -141 810 -245 209 -65 323 -98 553 -162 32 -9 52 -20 52
-29 0 -12 -220 -14 -1603 -14 -1631 0 -1627 0 -1627 34 0 6 67 62 148 124 284
217 747 560 757 561 5 1 124 -33 265 -75z m1184 61 c14 -11 16 -15 5 -15 -12
0 -12 -2 1 -10 11 -7 12 -10 2 -10 -8 0 -16 9 -19 21 -4 12 -11 18 -20 15 -8
-3 -11 -1 -8 4 8 13 16 12 39 -5z m-3280 -230 c387 -292 555 -420 569 -434 8
-8 7 -16 -5 -27 -14 -14 -164 -15 -1617 -8 -881 4 -1598 10 -1594 14 4 4 64
23 133 43 69 19 256 74 415 122 160 48 418 125 575 172 157 47 371 111 475
143 549 169 683 208 709 209 22 1 95 -49 340 -234z m4066 200 c0 -7 -30 -13
-34 -7 -3 4 4 9 15 9 10 1 19 0 19 -2z m-686 -30 c17 -13 18 -15 3 -15 -9 0
-17 5 -17 10 0 6 -5 10 -11 10 -5 0 -7 -4 -4 -10 3 -5 1 -10 -4 -10 -12 0 -14
13 -4 23 9 10 15 8 37 -8z m-1164 -1 c0 -8 -19 -13 -24 -6 -3 5 1 9 9 9 8 0
15 -2 15 -3z m1229 -41 c9 -9 15 -18 13 -21 -2 -2 -1 -6 2 -9 3 -4 6 -1 6 5 0
6 7 9 16 5 13 -5 13 -7 2 -14 -10 -7 -10 -9 2 -10 8 -1 19 -1 23 0 5 1 6 -3 2
-9 -9 -14 -61 15 -75 41 -7 11 -18 18 -25 15 -8 -3 -16 -2 -19 2 -9 15 37 10
53 -5z m111 -69 c0 -8 -19 -13 -24 -6 -3 5 1 9 9 9 8 0 15 -2 15 -3z m-900
-24 c0 -5 -4 -10 -10 -10 -5 0 -10 5 -10 10 0 6 5 10 10 10 6 0 10 -4 10 -10z
m1503 -4 c4 -10 1 -13 -8 -9 -8 3 -12 9 -9 14 7 12 11 11 17 -5z m-1372 -37
c35 -11 72 -22 83 -24 24 -5 34 -15 15 -15 -23 0 -132 30 -143 39 -6 5 -20 11
-31 14 -14 3 -15 5 -4 6 9 0 45 -8 80 -20z m159 -49 c12 -8 11 -10 -7 -10 -12
0 -25 5 -28 10 -8 13 15 13 35 0z m123 -29 c26 -6 57 -15 68 -22 40 -21 10
-20 -63 2 -40 12 -78 22 -85 23 -7 1 -16 6 -20 10 -8 8 8 6 100 -13z m262 -81
c3 -5 1 -10 -4 -10 -6 0 -11 5 -11 10 0 6 2 10 4 10 3 0 8 -4 11 -10z m615
-36 c0 -2 -9 0 -20 6 -11 6 -20 13 -20 16 0 2 9 0 20 -6 11 -6 20 -13 20 -16z
m65 -14 c4 -6 11 -8 16 -5 5 4 9 2 9 -3 0 -5 14 -15 30 -22 34 -14 40 -30 11
-27 -11 0 -17 5 -15 9 3 4 -1 8 -10 8 -8 0 -16 5 -18 11 -2 6 -17 13 -32 14
-25 3 -62 25 -42 25 5 0 2 7 -5 17 -13 15 -12 15 18 0 17 -9 35 -21 38 -27z
m129 -75 c11 -8 18 -17 15 -19 -2 -2 -15 4 -28 15 -27 22 -15 26 13 4z m-313
-26 c11 -6 30 -12 41 -14 11 -3 23 -7 26 -10 10 -9 -26 -5 -55 7 -15 6 -34 12
-41 14 -8 1 -16 5 -20 8 -10 10 28 6 49 -5z m696 -37 c12 -12 22 -25 22 -29 0
-3 5 -9 11 -13 8 -5 14 -38 16 -84 3 -65 1 -79 -15 -95 -11 -11 -17 -22 -13
-25 3 -3 -2 -6 -11 -6 -9 0 -17 -7 -17 -15 0 -8 -9 -15 -20 -15 -11 0 -20 -4
-20 -8 0 -19 -75 -7 -100 15 -14 13 -28 23 -32 23 -5 0 -8 7 -8 15 0 8 -4 15
-8 15 -11 0 -35 51 -27 58 2 3 0 11 -6 19 -7 8 -8 18 -2 26 5 6 8 22 7 35 0
12 3 22 7 22 5 0 9 7 9 15 0 8 14 28 31 46 28 29 34 31 92 27 47 -2 66 -8 84
-26z m-549 -7 c13 -12 -5 -12 -33 0 l-30 14 29 -4 c16 -2 31 -7 34 -10z m32
-15 c0 -5 -2 -10 -4 -10 -3 0 -8 5 -11 10 -3 6 -1 10 4 10 6 0 11 -4 11 -10z
m-6910 -31 c0 -5 6 -9 13 -9 15 0 40 -37 44 -66 4 -24 -20 -86 -39 -101 -16
-14 -90 -24 -82 -12 3 5 -1 9 -9 9 -7 0 -23 13 -35 30 -18 24 -21 37 -16 71 4
22 13 43 20 46 8 3 14 11 14 18 0 12 10 15 73 22 9 1 17 -2 17 -8z m3705 -53
c21 -20 19 -65 -5 -101 -11 -16 -20 -26 -20 -21 0 5 -6 3 -14 -3 -10 -9 -16
-9 -21 -1 -4 6 -14 9 -23 5 -9 -3 -14 -3 -10 0 3 4 -3 16 -14 27 -23 23 -19
69 10 101 19 22 72 18 97 -7z"/>
<path d="M13590 7822 c0 -4 10 -13 21 -21 16 -9 19 -15 9 -21 -8 -5 -9 -9 -1
-14 6 -4 11 -3 11 2 0 5 11 14 25 20 29 13 33 32 8 32 -14 0 -15 -2 -5 -9 11
-6 10 -10 -4 -15 -9 -4 -22 -2 -28 4 -7 7 -6 10 3 10 7 0 9 5 6 10 -7 12 -45
14 -45 2z"/>
<path d="M13368 7713 c7 -3 16 -2 19 1 4 3 -2 6 -13 5 -11 0 -14 -3 -6 -6z"/>
<path d="M13825 7710 c-3 -5 1 -10 9 -10 9 0 16 5 16 10 0 6 -4 10 -9 10 -6 0
-13 -4 -16 -10z"/>
<path d="M13615 7700 c-3 -5 -1 -10 4 -10 6 0 11 5 11 10 0 6 -2 10 -4 10 -3
0 -8 -4 -11 -10z"/>
<path d="M13708 7703 c7 -3 16 -2 19 1 4 3 -2 6 -13 5 -11 0 -14 -3 -6 -6z"/>
<path d="M13758 7703 c12 -2 30 -2 40 0 9 3 -1 5 -23 4 -22 0 -30 -2 -17 -4z"/>
<path d="M13508 7683 c7 -3 16 -2 19 1 4 3 -2 6 -13 5 -11 0 -14 -3 -6 -6z"/>
<path d="M10757 9993 c-4 -3 -7 -11 -7 -17 0 -6 5 -5 12 2 6 6 9 14 7 17 -3 3
-9 2 -12 -2z"/>
<path d="M11090 9941 c-41 -15 -105 -38 -143 -51 -43 -15 -64 -27 -58 -33 7
-7 15 -6 25 2 8 7 20 11 28 10 27 -3 39 1 32 13 -5 7 -2 9 9 5 8 -3 21 1 28 9
6 8 24 13 39 12 16 -1 34 3 42 10 8 6 19 8 23 4 5 -4 4 -1 0 7 -6 11 -4 13 9
8 10 -4 24 1 36 13 25 25 21 25 -70 -9z"/>
<path d="M12164 9948 c-4 -7 -14 -23 -22 -35 -8 -13 -10 -23 -6 -23 9 0 48 70
39 70 -2 0 -7 -6 -11 -12z"/>
<path d="M11210 9930 c-18 -12 -2 -12 25 0 13 6 15 9 5 9 -8 0 -22 -4 -30 -9z"/>
<path d="M12190 9896 c0 -8 -3 -16 -7 -18 -14 -6 -153 -221 -153 -236 0 -3 -7
-14 -17 -24 -9 -10 -12 -18 -6 -18 6 0 51 64 100 143 111 175 106 167 94 167
-6 0 -11 -6 -11 -14z"/>
<path d="M12086 9824 c-52 -79 -77 -124 -67 -124 4 0 19 20 32 45 13 25 27 45
31 45 5 0 8 5 8 11 0 6 9 24 21 41 12 16 19 31 17 34 -3 2 -22 -21 -42 -52z"/>
<path d="M12425 9390 c0 -256 1 -360 2 -233 2 128 2 338 0 465 -1 128 -2 24
-2 -232z"/>
<path d="M12787 9734 c21 -31 39 -51 41 -45 2 5 -8 23 -22 38 -15 15 -29 36
-32 46 -3 9 -10 17 -15 17 -5 0 8 -25 28 -56z"/>
<path d="M12825 9760 c10 -11 20 -20 22 -20 2 0 -1 9 -7 20 -6 11 -16 20 -22
20 -6 0 -3 -9 7 -20z"/>
<path d="M12876 9687 c3 -10 9 -15 12 -12 3 3 0 11 -7 18 -10 9 -11 8 -5 -6z"/>
<path d="M11985 9669 c-4 -6 -5 -12 -2 -15 2 -3 7 2 10 11 7 17 1 20 -8 4z"/>
<path d="M12836 9655 c4 -8 10 -15 15 -15 4 0 6 7 3 15 -4 8 -10 15 -15 15 -4
0 -6 -7 -3 -15z"/>
<path d="M11986 9575 c-3 -8 -1 -15 3 -15 5 0 11 7 15 15 3 8 1 15 -3 15 -5 0
-11 -7 -15 -15z"/>
<path d="M11958 9528 c-10 -12 -18 -27 -18 -33 0 -11 39 35 40 48 0 11 -4 9
-22 -15z"/>
<path d="M11846 9444 c-5 -14 -4 -15 9 -4 17 14 19 20 6 20 -5 0 -12 -7 -15
-16z"/>
<path d="M11903 9438 c-39 -49 -81 -118 -73 -118 5 0 24 24 43 53 46 73 49 77
44 77 -3 0 -9 -6 -14 -12z"/>
<path d="M13013 9384 c9 -16 22 -38 30 -48 13 -17 14 -17 20 -2 4 10 3 15 -3
11 -5 -3 -16 8 -25 24 -8 16 -20 33 -26 36 -6 4 -4 -6 4 -21z"/>
<path d="M11814 9388 c-4 -7 -15 -24 -23 -38 -10 -15 -11 -21 -3 -16 13 7 46
66 38 66 -3 0 -8 -6 -12 -12z"/>
<path d="M13066 9387 c3 -10 9 -15 12 -12 3 3 0 11 -7 18 -10 9 -11 8 -5 -6z"/>
<path d="M12455 9380 c3 -5 8 -10 11 -10 2 0 4 5 4 10 0 6 -5 10 -11 10 -5 0
-7 -4 -4 -10z"/>
<path d="M12455 9330 c-3 -5 -1 -10 4 -10 6 0 11 5 11 10 0 6 -2 10 -4 10 -3
0 -8 -4 -11 -10z"/>
<path d="M11751 9293 c-10 -26 -10 -27 4 -9 8 11 15 23 15 28 0 15 -7 8 -19
-19z"/>
<path d="M11802 9290 c-6 -11 -12 -22 -12 -25 0 -11 20 6 30 26 14 25 -2 25
-18 -1z"/>
<path d="M12456 9293 c-6 -14 -5 -15 5 -6 7 7 10 15 7 18 -3 3 -9 -2 -12 -12z"/>
<path d="M13060 9306 c0 -2 8 -10 18 -17 15 -13 16 -12 3 4 -13 16 -21 21 -21
13z"/>
<path d="M14540 9280 c6 -11 13 -20 16 -20 2 0 0 9 -6 20 -6 11 -13 20 -16 20
-2 0 0 -9 6 -20z"/>
<path d="M14480 9281 c0 -6 4 -13 10 -16 6 -3 7 1 4 9 -7 18 -14 21 -14 7z"/>
<path d="M14560 9244 c0 -7 17 -34 113 -186 79 -124 95 -145 61 -83 -36 68
-164 275 -170 275 -2 0 -4 -3 -4 -6z"/>
<path d="M14528 9198 c21 -35 42 -70 90 -153 55 -95 124 -205 128 -205 2 0
-14 34 -36 76 -22 42 -40 82 -40 89 0 7 -6 15 -13 18 -7 2 -22 25 -35 50 -12
24 -29 50 -37 57 -8 7 -15 19 -15 26 0 8 -4 14 -9 14 -5 0 -14 14 -21 30 -7
17 -17 30 -22 30 -5 0 -1 -15 10 -32z"/>
<path d="M13202 9175 c6 -14 15 -25 20 -25 5 0 1 11 -8 25 -9 14 -18 25 -20
25 -2 0 2 -11 8 -25z"/>
<path d="M13150 9172 c6 -13 14 -21 18 -18 3 4 -2 14 -12 24 -18 16 -18 16 -6
-6z"/>
<path d="M13178 9125 c16 -30 41 -61 41 -50 0 6 -11 24 -25 40 -14 17 -21 21
-16 10z"/>
<path d="M13239 9121 c20 -36 111 -171 116 -171 5 0 -29 56 -92 151 -27 41
-41 53 -24 20z"/>
<path d="M14176 9117 c-7 -31 -20 -253 -14 -247 7 7 30 270 23 270 -1 0 -5
-10 -9 -23z"/>
<path d="M14213 9088 c-4 -7 -6 -24 -4 -37 1 -13 -1 -21 -6 -18 -9 6 -11 -208
-2 -218 4 -3 10 31 13 77 4 46 9 111 12 146 5 62 2 73 -13 50z"/>
<path d="M13236 9035 c20 -30 24 -31 17 -6 -3 11 -11 22 -19 25 -11 4 -11 0 2
-19z"/>
<path d="M12456 9014 c-4 -9 -4 -19 -1 -22 2 -3 7 3 11 12 4 9 4 19 1 22 -2 3
-7 -3 -11 -12z"/>
<path d="M12455 8971 c-3 -5 -1 -12 5 -16 5 -3 10 1 10 9 0 18 -6 21 -15 7z"/>
<path d="M13286 8955 c4 -8 11 -15 16 -15 6 0 5 6 -2 15 -7 8 -14 15 -16 15
-2 0 -1 -7 2 -15z"/>
<path d="M13370 8921 c0 -6 4 -13 10 -16 6 -3 7 1 4 9 -7 18 -14 21 -14 7z"/>
<path d="M13332 8888 c8 -13 40 -63 71 -113 74 -120 241 -375 262 -400 32 -41
-16 48 -75 135 -78 116 -101 160 -94 172 4 7 2 8 -4 4 -13 -8 -31 23 -24 43 3
8 0 11 -6 7 -7 -4 -36 31 -72 84 -33 49 -63 90 -66 90 -4 0 0 -10 8 -22z"/>
<path d="M13426 8833 c40 -61 65 -113 59 -123 -3 -5 0 -7 8 -4 8 3 17 -2 21
-12 12 -30 61 -103 70 -104 4 0 2 10 -6 23 -8 12 -48 73 -87 135 -40 61 -75
112 -78 112 -3 0 3 -12 13 -27z"/>
<path d="M12460 8832 c-13 -14 -12 -15 5 -9 10 4 21 4 24 0 3 -4 26 -19 51
-32 25 -14 52 -33 61 -43 9 -10 23 -18 32 -18 8 0 17 -5 19 -11 2 -7 10 -10
18 -7 13 4 -78 69 -165 118 -27 15 -32 16 -45 2z"/>
<path d="M14760 8810 c6 -11 13 -20 16 -20 2 0 0 9 -6 20 -6 11 -13 20 -16 20
-2 0 0 -9 6 -20z"/>
<path d="M14151 8804 c0 -11 3 -14 6 -6 3 7 2 16 -1 19 -3 4 -6 -2 -5 -13z"/>
<path d="M14190 8789 c0 -5 5 -7 10 -4 6 3 10 8 10 11 0 2 -4 4 -10 4 -5 0
-10 -5 -10 -11z"/>
<path d="M14191 8724 c0 -11 3 -14 6 -6 3 7 2 16 -1 19 -3 4 -6 -2 -5 -13z"/>
<path d="M12820 8620 c0 -5 5 -10 11 -10 5 0 7 5 4 10 -3 6 -8 10 -11 10 -2 0
-4 -4 -4 -10z"/>
<path d="M14136 8582 c-3 -15 -8 -74 -11 -132 -7 -131 -24 -361 -30 -416 -4
-39 -3 -42 20 -40 30 1 43 26 14 26 -11 0 -17 5 -14 10 4 6 10 8 15 5 5 -3 11
-1 15 5 3 5 -3 10 -14 10 -18 0 -20 5 -16 48 2 26 7 85 11 132 3 47 9 90 12
95 10 15 19 -66 11 -91 -4 -11 -3 -27 3 -35 8 -11 9 -10 4 4 -3 9 -2 17 3 17
4 0 11 44 15 98 4 53 9 129 12 167 4 54 3 66 -6 53 -6 -10 -16 -18 -23 -18 -7
0 -6 4 3 10 13 9 13 11 0 20 -13 9 -13 11 -1 19 12 8 12 12 -2 25 -14 14 -16
13 -21 -12z m25 -99 c-12 -20 -14 -14 -5 12 4 9 9 14 11 11 3 -2 0 -13 -6 -23z
m0 -53 c-7 -4 -9 -15 -5 -26 5 -15 4 -16 -6 -8 -14 14 -4 58 12 48 7 -4 6 -9
-1 -14z"/>
<path d="M13590 8576 c0 -2 8 -10 18 -17 15 -13 16 -12 3 4 -13 16 -21 21 -21
13z"/>
<path d="M13630 8520 c6 -11 13 -20 16 -20 2 0 0 9 -6 20 -6 11 -13 20 -16 20
-2 0 0 -9 6 -20z"/>
<path d="M13650 8487 c0 -4 5 -13 10 -20 6 -7 17 -21 25 -32 7 -11 16 -17 19
-14 4 3 -7 21 -24 40 -16 19 -30 30 -30 26z"/>
<path d="M13057 8439 c7 -7 15 -10 18 -7 3 3 -2 9 -12 12 -14 6 -15 5 -6 -5z"/>
<path d="M13716 8370 c10 -19 26 -44 35 -55 8 -11 16 -31 16 -45 l1 -25 -10
23 c-6 12 -15 22 -20 22 -5 0 -6 5 -3 10 3 6 -1 13 -10 16 -9 4 -14 12 -12 18
3 7 -4 12 -14 12 -11 0 -19 -1 -19 -2 0 -2 237 -361 258 -391 7 -10 0 7 -15
37 -15 30 -29 58 -31 63 -2 4 6 11 18 15 20 7 15 17 -79 158 -97 147 -159 224
-115 144z m125 -213 c-10 -9 -11 -8 -5 6 3 10 9 15 12 12 3 -3 0 -11 -7 -18z
m46 -67 c-1 -12 -5 -16 -10 -11 -5 5 -6 14 -3 20 11 16 15 13 13 -9z"/>
<path d="M11040 8382 c0 -5 -7 -17 -16 -28 -8 -10 -13 -14 -10 -7 4 6 2 14 -2
17 -9 5 -24 -19 -36 -57 -4 -12 -2 -16 7 -12 6 4 5 1 -4 -7 -31 -26 -53 -86
-26 -73 6 3 2 -2 -10 -11 -25 -18 -30 -40 -10 -47 9 -3 9 -7 -2 -20 -7 -10
-11 -17 -7 -17 4 0 -1 -11 -10 -25 -10 -15 -12 -25 -5 -25 14 0 33 37 97 193
29 70 49 127 43 127 -5 0 -9 -4 -9 -8z m-68 -144 c-7 -7 -12 -8 -12 -2 0 14
12 26 19 19 2 -3 -1 -11 -7 -17z"/>
<path d="M14144 8169 c-3 -6 -2 -15 3 -20 5 -5 9 -1 10 11 2 22 -2 25 -13 9z"/>
<path d="M10880 8062 c0 -5 7 -15 15 -22 8 -7 15 -9 15 -6 0 4 -7 14 -15 22
-8 9 -15 11 -15 6z"/>
<path d="M14091 7952 c0 -15 3 -21 6 -13 5 11 7 11 14 0 8 -12 11 -11 19 1 5
8 9 22 9 30 0 10 -3 8 -9 -5 -5 -11 -9 -15 -9 -9 -1 7 -8 14 -16 18 -11 4 -15
-2 -14 -22z"/>
<path d="M14870 7846 c0 -2 8 -10 18 -17 15 -13 16 -12 3 4 -13 16 -21 21 -21
13z"/>
<path d="M15006 7709 c13 -22 204 -225 204 -216 0 10 -26 39 -124 140 -49 51
-85 85 -80 76z"/>
<path d="M15136 7618 c26 -31 55 -59 90 -88 16 -13 0 6 -36 43 -62 64 -94 91
-54 45z"/>
<path d="M15220 7484 c0 -6 17 -26 38 -45 l37 -34 -35 40 c-19 22 -36 42 -37
44 -2 2 -3 0 -3 -5z"/>
<path d="M15340 7346 c0 -2 8 -10 18 -17 15 -13 16 -12 3 4 -13 16 -21 21 -21
13z"/>
<path d="M12295 5460 c-110 -23 -234 -83 -304 -146 -34 -31 -63 -70 -88 -122
-38 -75 -38 -77 -38 -196 0 -108 3 -126 25 -171 69 -141 210 -217 535 -290
155 -35 266 -78 310 -119 29 -27 35 -41 35 -73 0 -182 -341 -227 -653 -87 -45
21 -99 48 -119 61 -21 12 -41 23 -46 23 -8 0 -52 -89 -106 -213 l-25 -57 42
-27 c278 -176 730 -213 1005 -83 139 66 219 162 257 307 20 78 19 139 -5 217
-48 155 -167 240 -430 310 -52 14 -151 39 -220 57 -135 34 -182 54 -218 92
-49 52 -35 141 29 190 59 44 138 60 264 54 124 -6 220 -30 335 -85 41 -19 75
-31 77 -26 2 7 74 172 109 251 7 15 -90 65 -191 98 -176 57 -407 71 -580 35z"/>
<path d="M7959 4848 c0 -337 -1 -638 -1 -668 0 -30 0 -104 1 -165 l1 -110 180
0 180 0 0 222 0 221 248 5 c179 3 266 9 316 20 196 46 349 176 407 347 18 53
22 87 22 180 0 104 -3 123 -31 198 -39 103 -84 166 -161 222 -67 49 -141 82
-250 113 -71 19 -106 21 -493 25 l-418 3 -1 -613z m737 312 c110 -17 192 -68
230 -142 20 -39 21 -173 2 -218 -20 -47 -73 -98 -128 -123 -38 -17 -76 -22
-254 -28 -115 -5 -212 -6 -217 -3 -10 6 -13 507 -3 516 10 11 301 9 370 -2z"/>
<path d="M9580 4683 l0 -779 183 0 182 1 1 220 1 220 160 3 160 2 34 -52 c137
-210 262 -388 272 -389 71 -5 387 -2 387 3 0 4 -21 37 -47 75 -127 183 -283
416 -283 423 0 4 24 22 53 40 140 91 230 226 244 370 20 190 -25 340 -136 451
-74 74 -143 111 -286 155 l-90 28 -417 4 -418 3 0 -778z m745 476 c166 -31
243 -120 233 -273 -6 -86 -29 -132 -91 -177 -67 -49 -124 -59 -328 -62 l-184
-2 -5 250 c-3 138 -3 256 -1 263 4 16 291 17 376 1z"/>
<path d="M11220 4690 c0 -423 0 -773 0 -777 0 -5 80 -8 178 -8 l177 0 0 775 0
775 -177 3 -178 2 0 -770z"/>
<path d="M13385 5438 c-3 -13 -4 -363 -3 -778 l3 -755 172 0 173 0 0 443 c0
243 3 442 8 442 4 -1 57 -85 118 -188 61 -103 160 -267 220 -364 l109 -178 87
0 87 0 42 73 c152 263 199 343 252 432 33 55 79 133 102 172 23 40 45 70 48
66 4 -3 7 -207 7 -452 l0 -446 174 3 175 3 -5 407 c-2 224 -6 571 -8 772 l-3
365 -151 3 -150 3 -72 -123 c-40 -68 -85 -143 -100 -168 -15 -25 -80 -135
-145 -245 -65 -110 -130 -220 -146 -245 -16 -25 -45 -73 -65 -107 -19 -35 -39
-63 -42 -63 -4 1 -52 78 -107 172 -55 93 -118 200 -141 237 -23 36 -77 125
-121 196 -44 72 -109 177 -144 235 l-65 105 -152 3 c-150 2 -152 2 -157 -20z"/>
<path d="M15950 5338 c-54 -114 -88 -190 -225 -503 -28 -66 -72 -165 -97 -220
-25 -55 -71 -156 -101 -225 -30 -69 -91 -205 -135 -302 -44 -98 -77 -179 -74
-181 4 -2 90 -3 191 -3 l184 1 39 95 c22 52 51 125 65 163 l26 67 367 0 367 0
67 -160 68 -160 56 -1 c292 -3 346 -1 334 14 -5 6 -43 86 -85 177 -97 214
-286 627 -392 855 -46 99 -117 252 -157 340 l-74 160 -183 3 -182 2 -59 -122z
m297 -383 c98 -230 173 -413 173 -424 0 -8 -73 -11 -235 -11 -129 0 -235 1
-235 3 0 2 18 45 40 96 32 75 136 331 181 450 6 13 13 20 18 15 4 -5 30 -63
58 -129z"/>
<path d="M11351 3415 c-88 -28 -123 -83 -131 -210 l-5 -90 -67 -3 -68 -3 0
-44 0 -44 68 2 67 2 2 -330 2 -330 53 0 53 0 -1 328 -1 327 107 0 107 0 7 41
c4 23 5 43 4 45 -2 1 -39 4 -84 5 -44 1 -94 4 -112 7 -32 4 -32 5 -32 58 0 30
6 70 14 89 28 66 114 93 191 61 34 -15 35 -15 50 14 22 42 19 49 -27 70 -50
23 -133 25 -197 5z"/>
<path d="M9622 3370 c-103 -19 -203 -91 -237 -172 -22 -54 -20 -159 5 -207 41
-82 118 -123 326 -177 195 -51 246 -81 264 -158 27 -122 -78 -206 -258 -206
-118 0 -258 45 -306 99 -26 29 -33 27 -56 -18 l-20 -39 37 -33 c116 -101 352
-136 522 -77 51 17 79 35 122 78 49 49 58 64 69 114 26 127 -20 217 -146 279
-27 14 -111 42 -185 62 -171 46 -233 74 -259 117 -51 84 0 194 109 233 92 32
274 12 353 -40 21 -14 42 -25 47 -25 7 0 41 69 41 84 0 10 -91 56 -140 70 -67
20 -217 28 -288 16z"/>
<path d="M11709 3283 c-1 -5 0 -43 1 -85 2 -73 1 -77 -22 -83 -12 -3 -36 -3
-53 -1 -46 5 -55 -2 -55 -48 l0 -41 63 0 62 0 5 -270 c5 -261 6 -271 28 -308
29 -45 91 -83 153 -92 57 -8 150 10 181 35 l22 18 -19 36 c-11 20 -21 36 -23
36 -2 0 -17 -7 -34 -16 -22 -12 -49 -15 -91 -12 -49 4 -64 9 -82 31 -20 23
-24 41 -30 159 -4 73 -5 187 -3 253 l3 120 110 5 110 5 0 45 0 45 -110 0 -110
0 -3 88 -3 87 -49 0 c-28 0 -50 -3 -51 -7z"/>
<path d="M14647 3119 c-66 -10 -153 -54 -179 -90 -12 -16 -26 -29 -31 -29 -4
0 -7 26 -6 58 l3 57 -50 0 -49 -1 -3 -377 -2 -377 55 0 55 0 0 218 c0 231 9
295 52 354 31 44 100 79 168 85 l61 6 -3 50 c-2 28 -7 51 -13 52 -5 2 -32 -1
-58 -6z"/>
<path d="M10485 3107 c-128 -43 -213 -129 -245 -249 -20 -77 -9 -221 22 -290
69 -149 246 -238 415 -208 219 38 352 227 314 445 -16 90 -46 150 -103 208
-74 74 -141 101 -263 104 -63 2 -115 -2 -140 -10z m212 -92 c114 -34 186 -140
187 -275 1 -129 -66 -232 -177 -275 -61 -23 -165 -17 -223 13 -163 83 -198
339 -65 472 75 75 170 97 278 65z"/>
<path d="M12140 3108 c0 -5 36 -106 81 -225 148 -398 177 -478 181 -498 3 -17
11 -20 61 -20 l59 0 42 115 c38 103 153 407 171 453 12 29 23 19 41 -35 15
-48 171 -461 194 -515 8 -20 17 -23 62 -23 l53 0 29 83 c16 45 75 206 132 357
56 151 104 284 106 295 3 18 -3 20 -46 20 l-50 0 -53 -150 c-51 -143 -143
-392 -164 -445 -10 -22 -21 1 -100 210 -49 129 -101 270 -117 312 l-27 78 -45
0 -45 0 -108 -288 c-59 -158 -110 -297 -114 -309 -3 -13 -8 -23 -12 -23 -3 0
-25 53 -48 118 -24 64 -74 202 -111 306 l-68 188 -52 2 c-29 0 -52 -2 -52 -6z"/>
<path d="M13608 3101 c-56 -18 -148 -66 -148 -78 0 -3 10 -22 21 -43 l22 -38
44 28 c99 63 234 75 328 30 55 -26 85 -83 85 -157 l0 -51 -177 -4 c-202 -4
-242 -15 -300 -81 -37 -42 -47 -85 -41 -163 6 -70 43 -119 123 -159 53 -26 69
-30 150 -29 103 0 166 22 223 76 l32 32 0 -52 0 -52 50 0 50 0 0 268 c0 309
-7 349 -68 410 -62 62 -102 76 -227 79 -86 2 -122 -1 -167 -16z m352 -450 c0
-96 -26 -142 -105 -184 -32 -17 -57 -22 -126 -22 -76 0 -90 3 -126 27 -93 62
-75 197 31 227 17 5 97 10 179 10 l147 1 0 -59z"/>
<path d="M15053 3100 c-64 -22 -98 -46 -148 -101 -49 -54 -72 -109 -85 -199
-12 -83 -8 -118 23 -210 39 -115 155 -206 297 -232 111 -21 258 16 344 85 l29
23 -30 42 -30 41 -22 -23 c-40 -42 -110 -69 -192 -74 -96 -6 -161 14 -222 68
-47 41 -91 125 -85 163 l3 22 309 0 308 0 -4 77 c-8 143 -98 271 -224 317 -72
28 -198 28 -271 1z m226 -86 c74 -21 135 -84 156 -159 9 -31 15 -58 13 -60 -2
-2 -119 -6 -261 -8 l-257 -5 0 27 c1 36 35 110 68 144 67 71 171 94 281 61z"/>
</g>
</svg>
